<mxfile host="app.diagrams.net" modified="2021-06-16T05:45:15.101Z" agent="5.0 (Macintosh; Intel Mac OS X 10_15_7) AppleWebKit/537.36 (KHTML, like Gecko) Chrome/91.0.4472.77 Safari/537.36" etag="lgzQatr-AUYRzc-f1rx4" version="14.7.7" type="github">
  <diagram id="6cx5Efm9F8t2SN-f1zFe" name="Page-1">
    <mxGraphModel dx="1426" dy="794" grid="1" gridSize="10" guides="1" tooltips="1" connect="1" arrows="1" fold="1" page="1" pageScale="1" pageWidth="827" pageHeight="1169" math="0" shadow="0">
      <root>
        <mxCell id="0" />
        <mxCell id="1" parent="0" />
        <mxCell id="PZ1nAdyLRvPgmQZ_rLl0-1" value="" style="edgeStyle=none;rounded=0;jumpStyle=none;html=1;shadow=0;labelBackgroundColor=none;startArrow=none;startFill=0;endArrow=classic;endFill=1;jettySize=auto;orthogonalLoop=1;strokeColor=#2F5B7C;strokeWidth=3;fontFamily=Helvetica;fontSize=16;fontColor=#23445D;spacing=5;" edge="1" parent="1" source="PZ1nAdyLRvPgmQZ_rLl0-16">
          <mxGeometry relative="1" as="geometry">
            <mxPoint x="798" y="231" as="targetPoint" />
          </mxGeometry>
        </mxCell>
        <mxCell id="PZ1nAdyLRvPgmQZ_rLl0-2" value="" style="edgeStyle=none;rounded=0;jumpStyle=none;html=1;shadow=0;labelBackgroundColor=none;startArrow=none;startFill=0;endArrow=classic;endFill=1;jettySize=auto;orthogonalLoop=1;strokeColor=#2F5B7C;strokeWidth=3;fontFamily=Helvetica;fontSize=16;fontColor=#23445D;spacing=5;" edge="1" parent="1" source="PZ1nAdyLRvPgmQZ_rLl0-3" target="PZ1nAdyLRvPgmQZ_rLl0-12">
          <mxGeometry relative="1" as="geometry" />
        </mxCell>
        <mxCell id="PZ1nAdyLRvPgmQZ_rLl0-3" value="RootNode" style="rounded=1;whiteSpace=wrap;html=1;shadow=0;labelBackgroundColor=none;strokeColor=none;strokeWidth=3;fillColor=#2F5B7C;fontFamily=Helvetica;fontSize=16;fontColor=#FFFFFF;align=center;fontStyle=1;spacing=5;arcSize=7;perimeterSpacing=2;" vertex="1" parent="1">
          <mxGeometry x="800" y="195.5" width="150" height="70" as="geometry" />
        </mxCell>
        <mxCell id="PZ1nAdyLRvPgmQZ_rLl0-4" value="" style="edgeStyle=none;rounded=1;jumpStyle=none;html=1;shadow=0;labelBackgroundColor=none;startArrow=none;startFill=0;jettySize=auto;orthogonalLoop=1;strokeColor=#E85642;strokeWidth=3;fontFamily=Helvetica;fontSize=14;fontColor=#FFFFFF;spacing=5;fontStyle=1;fillColor=#b0e3e6;" edge="1" parent="1" source="PZ1nAdyLRvPgmQZ_rLl0-7" target="PZ1nAdyLRvPgmQZ_rLl0-10">
          <mxGeometry relative="1" as="geometry" />
        </mxCell>
        <mxCell id="PZ1nAdyLRvPgmQZ_rLl0-5" value="" style="edgeStyle=none;rounded=1;jumpStyle=none;html=1;shadow=0;labelBackgroundColor=none;startArrow=none;startFill=0;jettySize=auto;orthogonalLoop=1;strokeColor=#E85642;strokeWidth=3;fontFamily=Helvetica;fontSize=14;fontColor=#FFFFFF;spacing=5;fontStyle=1;fillColor=#b0e3e6;" edge="1" parent="1" source="PZ1nAdyLRvPgmQZ_rLl0-7" target="PZ1nAdyLRvPgmQZ_rLl0-9">
          <mxGeometry relative="1" as="geometry" />
        </mxCell>
        <mxCell id="PZ1nAdyLRvPgmQZ_rLl0-6" value="" style="edgeStyle=none;rounded=1;jumpStyle=none;html=1;shadow=0;labelBackgroundColor=none;startArrow=none;startFill=0;jettySize=auto;orthogonalLoop=1;strokeColor=#E85642;strokeWidth=3;fontFamily=Helvetica;fontSize=14;fontColor=#FFFFFF;spacing=5;fontStyle=1;fillColor=#b0e3e6;" edge="1" parent="1" source="PZ1nAdyLRvPgmQZ_rLl0-7" target="PZ1nAdyLRvPgmQZ_rLl0-8">
          <mxGeometry relative="1" as="geometry" />
        </mxCell>
        <mxCell id="PZ1nAdyLRvPgmQZ_rLl0-7" value="Embassy" style="rounded=1;whiteSpace=wrap;html=1;shadow=0;labelBackgroundColor=none;strokeColor=none;strokeWidth=3;fillColor=#e85642;fontFamily=Helvetica;fontSize=14;fontColor=#FFFFFF;align=center;spacing=5;fontStyle=1;arcSize=7;perimeterSpacing=2;" vertex="1" parent="1">
          <mxGeometry x="215" y="385.5" width="150" height="60" as="geometry" />
        </mxCell>
        <mxCell id="PZ1nAdyLRvPgmQZ_rLl0-8" value="Theories" style="rounded=1;whiteSpace=wrap;html=1;shadow=0;labelBackgroundColor=none;strokeColor=none;strokeWidth=3;fillColor=#f08e81;fontFamily=Helvetica;fontSize=14;fontColor=#FFFFFF;align=center;spacing=5;fontStyle=0;arcSize=7;perimeterSpacing=2;" vertex="1" parent="1">
          <mxGeometry x="65" y="504.5" width="150" height="60" as="geometry" />
        </mxCell>
        <mxCell id="PZ1nAdyLRvPgmQZ_rLl0-9" value="Appeal" style="rounded=1;whiteSpace=wrap;html=1;shadow=0;labelBackgroundColor=none;strokeColor=none;strokeWidth=3;fillColor=#f08e81;fontFamily=Helvetica;fontSize=14;fontColor=#FFFFFF;align=center;spacing=5;fontStyle=0;arcSize=7;perimeterSpacing=2;" vertex="1" parent="1">
          <mxGeometry x="14" y="385.5" width="150" height="60" as="geometry" />
        </mxCell>
        <mxCell id="PZ1nAdyLRvPgmQZ_rLl0-10" value="Layout" style="rounded=1;whiteSpace=wrap;html=1;shadow=0;labelBackgroundColor=none;strokeColor=none;strokeWidth=3;fillColor=#f08e81;fontFamily=Helvetica;fontSize=14;fontColor=#FFFFFF;align=center;spacing=5;fontStyle=0;arcSize=7;perimeterSpacing=2;" vertex="1" parent="1">
          <mxGeometry x="65" y="254.5" width="150" height="60" as="geometry" />
        </mxCell>
        <mxCell id="PZ1nAdyLRvPgmQZ_rLl0-11" value="" style="edgeStyle=none;rounded=0;jumpStyle=none;html=1;shadow=0;labelBackgroundColor=none;startArrow=none;startFill=0;endArrow=classic;endFill=1;jettySize=auto;orthogonalLoop=1;strokeColor=#1699D3;strokeWidth=3;fontFamily=Helvetica;fontSize=14;fontColor=#FFFFFF;spacing=5;exitX=0.5;exitY=1;exitDx=0;exitDy=0;entryX=0.5;entryY=0;entryDx=0;entryDy=0;" edge="1" parent="1">
          <mxGeometry relative="1" as="geometry">
            <mxPoint x="875" y="375.5" as="sourcePoint" />
            <mxPoint x="875" y="427" as="targetPoint" />
          </mxGeometry>
        </mxCell>
        <mxCell id="PZ1nAdyLRvPgmQZ_rLl0-12" value="div" style="rounded=1;whiteSpace=wrap;html=1;shadow=0;labelBackgroundColor=none;strokeColor=none;strokeWidth=3;fillColor=#1699d3;fontFamily=Helvetica;fontSize=14;fontColor=#FFFFFF;align=center;spacing=5;fontStyle=1;arcSize=7;perimeterSpacing=2;" vertex="1" parent="1">
          <mxGeometry x="800" y="314.5" width="150" height="60" as="geometry" />
        </mxCell>
        <mxCell id="PZ1nAdyLRvPgmQZ_rLl0-13" value="123" style="rounded=1;whiteSpace=wrap;html=1;shadow=0;labelBackgroundColor=none;strokeColor=none;strokeWidth=3;fillColor=#64bbe2;fontFamily=Helvetica;fontSize=14;fontColor=#FFFFFF;align=center;spacing=5;arcSize=7;perimeterSpacing=2;" vertex="1" parent="1">
          <mxGeometry x="800" y="430" width="150" height="60" as="geometry" />
        </mxCell>
        <mxCell id="PZ1nAdyLRvPgmQZ_rLl0-14" value="Budget" style="rounded=1;whiteSpace=wrap;html=1;shadow=0;labelBackgroundColor=none;strokeColor=none;strokeWidth=3;fillColor=#64bbe2;fontFamily=Helvetica;fontSize=14;fontColor=#FFFFFF;align=center;spacing=5;arcSize=7;perimeterSpacing=2;" vertex="1" parent="1">
          <mxGeometry x="495" y="716.5" width="150" height="60" as="geometry" />
        </mxCell>
        <mxCell id="PZ1nAdyLRvPgmQZ_rLl0-15" value="Analysis" style="rounded=1;whiteSpace=wrap;html=1;shadow=0;labelBackgroundColor=none;strokeColor=none;strokeWidth=3;fillColor=#64bbe2;fontFamily=Helvetica;fontSize=14;fontColor=#FFFFFF;align=center;spacing=5;arcSize=7;perimeterSpacing=2;" vertex="1" parent="1">
          <mxGeometry x="295" y="650.5" width="150" height="60" as="geometry" />
        </mxCell>
        <mxCell id="PZ1nAdyLRvPgmQZ_rLl0-16" value="RootNode" style="rounded=1;whiteSpace=wrap;html=1;shadow=0;labelBackgroundColor=none;strokeColor=none;strokeWidth=3;fillColor=#F08705;fontFamily=Helvetica;fontSize=14;fontColor=#FFFFFF;align=center;spacing=5;fontStyle=1;arcSize=7;perimeterSpacing=2;" vertex="1" parent="1">
          <mxGeometry x="495" y="200.5" width="150" height="60" as="geometry" />
        </mxCell>
        <mxCell id="PZ1nAdyLRvPgmQZ_rLl0-17" value="&lt;b&gt;FiberRootNode&lt;/b&gt;" style="rounded=1;whiteSpace=wrap;html=1;shadow=0;labelBackgroundColor=none;strokeColor=none;strokeWidth=3;fillColor=#f5af58;fontFamily=Helvetica;fontSize=14;fontColor=#FFFFFF;align=center;spacing=5;arcSize=7;perimeterSpacing=2;" vertex="1" parent="1">
          <mxGeometry x="495" y="50.5" width="150" height="60" as="geometry" />
        </mxCell>
        <mxCell id="PZ1nAdyLRvPgmQZ_rLl0-18" value="" style="edgeStyle=none;rounded=0;jumpStyle=none;html=1;shadow=0;labelBackgroundColor=none;startArrow=none;startFill=0;endArrow=classic;endFill=1;jettySize=auto;orthogonalLoop=1;strokeColor=#F08705;strokeWidth=3;fontFamily=Helvetica;fontSize=14;fontColor=#FFFFFF;spacing=5;entryX=0.5;entryY=0;entryDx=0;entryDy=0;" edge="1" parent="1" source="PZ1nAdyLRvPgmQZ_rLl0-17" target="PZ1nAdyLRvPgmQZ_rLl0-28">
          <mxGeometry relative="1" as="geometry" />
        </mxCell>
        <mxCell id="PZ1nAdyLRvPgmQZ_rLl0-19" value="alternate" style="text;html=1;align=center;verticalAlign=middle;resizable=0;points=[];autosize=1;strokeColor=none;fontColor=#2E55A3;" vertex="1" parent="1">
          <mxGeometry x="690" y="205.5" width="60" height="20" as="geometry" />
        </mxCell>
        <mxCell id="PZ1nAdyLRvPgmQZ_rLl0-20" value="" style="edgeStyle=none;rounded=0;jumpStyle=none;html=1;shadow=0;labelBackgroundColor=none;startArrow=none;startFill=0;endArrow=classic;endFill=1;jettySize=auto;orthogonalLoop=1;strokeColor=#2F5B7C;strokeWidth=3;fontFamily=Helvetica;fontSize=16;fontColor=#23445D;spacing=5;exitX=0.019;exitY=0.642;exitDx=0;exitDy=0;exitPerimeter=0;" edge="1" parent="1" source="PZ1nAdyLRvPgmQZ_rLl0-3">
          <mxGeometry relative="1" as="geometry">
            <mxPoint x="795.5" y="240.5" as="sourcePoint" />
            <mxPoint x="644.5" y="240.5" as="targetPoint" />
          </mxGeometry>
        </mxCell>
        <mxCell id="PZ1nAdyLRvPgmQZ_rLl0-21" value="alternate" style="text;html=1;align=center;verticalAlign=middle;resizable=0;points=[];autosize=1;strokeColor=none;fontColor=#2E55A3;" vertex="1" parent="1">
          <mxGeometry x="690" y="245.5" width="60" height="20" as="geometry" />
        </mxCell>
        <mxCell id="PZ1nAdyLRvPgmQZ_rLl0-22" value="child" style="text;html=1;align=center;verticalAlign=middle;resizable=0;points=[];autosize=1;strokeColor=none;fontColor=#2E55A3;" vertex="1" parent="1">
          <mxGeometry x="890" y="280" width="40" height="20" as="geometry" />
        </mxCell>
        <mxCell id="PZ1nAdyLRvPgmQZ_rLl0-23" value="child" style="text;html=1;align=center;verticalAlign=middle;resizable=0;points=[];autosize=1;strokeColor=none;fontColor=#2E55A3;" vertex="1" parent="1">
          <mxGeometry x="890" y="394" width="40" height="20" as="geometry" />
        </mxCell>
        <mxCell id="PZ1nAdyLRvPgmQZ_rLl0-24" value="" style="edgeStyle=none;rounded=0;jumpStyle=none;html=1;shadow=0;labelBackgroundColor=none;startArrow=none;startFill=0;endArrow=classic;endFill=1;jettySize=auto;orthogonalLoop=1;strokeColor=#1699D3;strokeWidth=3;fontFamily=Helvetica;fontSize=14;fontColor=#FFFFFF;spacing=5;exitX=0.5;exitY=1;exitDx=0;exitDy=0;entryX=0.5;entryY=0;entryDx=0;entryDy=0;" edge="1" parent="1">
          <mxGeometry relative="1" as="geometry">
            <mxPoint x="860" y="426" as="sourcePoint" />
            <mxPoint x="860" y="374.5" as="targetPoint" />
          </mxGeometry>
        </mxCell>
        <mxCell id="PZ1nAdyLRvPgmQZ_rLl0-25" value="" style="edgeStyle=none;rounded=0;jumpStyle=none;html=1;shadow=0;labelBackgroundColor=none;startArrow=none;startFill=0;endArrow=classic;endFill=1;jettySize=auto;orthogonalLoop=1;strokeColor=#2F5B7C;strokeWidth=3;fontFamily=Helvetica;fontSize=16;fontColor=#23445D;spacing=5;" edge="1" parent="1">
          <mxGeometry relative="1" as="geometry">
            <mxPoint x="860" y="310.5" as="sourcePoint" />
            <mxPoint x="860" y="265.5" as="targetPoint" />
          </mxGeometry>
        </mxCell>
        <mxCell id="PZ1nAdyLRvPgmQZ_rLl0-26" value="return" style="text;html=1;align=center;verticalAlign=middle;resizable=0;points=[];autosize=1;strokeColor=none;fontColor=#2E55A3;" vertex="1" parent="1">
          <mxGeometry x="815" y="393.5" width="50" height="20" as="geometry" />
        </mxCell>
        <mxCell id="PZ1nAdyLRvPgmQZ_rLl0-27" value="return" style="text;html=1;align=center;verticalAlign=middle;resizable=0;points=[];autosize=1;strokeColor=none;fontColor=#2E55A3;" vertex="1" parent="1">
          <mxGeometry x="815" y="280" width="50" height="20" as="geometry" />
        </mxCell>
        <mxCell id="PZ1nAdyLRvPgmQZ_rLl0-28" value="" style="rounded=1;whiteSpace=wrap;html=1;strokeColor=#6c8ebf;fillColor=none;" vertex="1" parent="1">
          <mxGeometry x="770" y="160" width="210" height="380" as="geometry" />
        </mxCell>
        <mxCell id="PZ1nAdyLRvPgmQZ_rLl0-29" value="" style="rounded=1;whiteSpace=wrap;html=1;strokeColor=#d79b00;fillColor=none;" vertex="1" parent="1">
          <mxGeometry x="470" y="170" width="210" height="380" as="geometry" />
        </mxCell>
      </root>
    </mxGraphModel>
  </diagram>
</mxfile>
